<?xml version="1.0" encoding="UTF-8" standalone="no"?>
<svg
   xmlns:dc="http://purl.org/dc/elements/1.1/"
   xmlns:cc="http://creativecommons.org/ns#"
   xmlns:rdf="http://www.w3.org/1999/02/22-rdf-syntax-ns#"
   xmlns:svg="http://www.w3.org/2000/svg"
   xmlns="http://www.w3.org/2000/svg"
   xml:space="preserve"
   style="enable-background:new 0 0 152.4 167.6;"
   viewBox="0 0 152.4 167.6"
   y="0px"
   x="0px"
   id="Layer_1"
   version="1.1"><metadata
   id="metadata35"><rdf:RDF><cc:Work
       rdf:about=""><dc:format>image/svg+xml</dc:format><dc:type
         rdf:resource="http://purl.org/dc/dcmitype/StillImage" /><dc:title>Közlekedési</dc:title></cc:Work></rdf:RDF></metadata><defs
   id="defs33">
	
	
	
	
	
	
	
	
	
	
	
</defs>
<style
   id="style2"
   type="text/css">
	.st0{fill:#6E0A11;}
	.st1{fill-rule:evenodd;clip-rule:evenodd;fill:#6E0A11;}
	.st2{fill:none;stroke:#FFFFFF;stroke-width:0.5669;stroke-miterlimit:22.9256;}
	.st3{fill-rule:evenodd;clip-rule:evenodd;fill:#6F6F6E;}
	.st4{fill-rule:evenodd;clip-rule:evenodd;fill:#FFFFFF;}
</style>
<title
   id="title4">Közlekedési</title>
<path
   class="st0"
   d="m 151.5,129.5 -1.3,-0.9 0.9,-1.3 1.3,0.9 z m -2.4,3 -5.3,-4.2 -1.5,1.9 -1.1,-0.9 4,-5.1 1.1,0.9 -1.5,1.9 5.3,4.2 z m -8.8,3.1 0.8,-0.9 c 0.5,-0.6 0.9,-0.9 0.9,-1.1 0.1,-0.2 0.1,-0.4 0.1,-0.6 0,-0.2 -0.2,-0.4 -0.3,-0.5 -0.2,-0.2 -0.4,-0.3 -0.6,-0.3 -0.2,0 -0.4,0.1 -0.7,0.2 -0.1,0.1 -0.4,0.4 -0.9,0.8 l -0.9,0.9 z m 2.2,4.4 -5.9,-5.6 2.4,-2.5 c 0.6,-0.6 1.1,-1 1.5,-1.2 0.4,-0.2 0.8,-0.2 1.2,-0.1 0.4,0.1 0.8,0.3 1.2,0.6 0.4,0.4 0.7,0.9 0.7,1.4 0,0.5 -0.1,1.1 -0.6,1.7 0.4,-0.1 0.8,-0.2 1.1,-0.2 0.3,0 0.9,0.1 1.6,0.2 l 1.8,0.4 -1.4,1.4 -2.1,-0.4 c -0.7,-0.1 -1.2,-0.2 -1.5,-0.2 -0.2,0 -0.4,0 -0.6,0.1 -0.2,0.1 -0.4,0.3 -0.6,0.5 l -0.2,0.2 2.5,2.4 z m -5.5,5.4 -1,-1.1 -0.6,-6.8 -2.7,2.6 -1,-1 4.3,-4.1 0.9,0.9 0.6,7.1 3.3,-3.2 1,1 z m -4.5,3.4 -5,-6.4 1.3,-1 5,6.4 z m -8,2.5 1.2,-1.1 c 0.4,0.4 0.8,0.6 1.2,0.6 0.4,0 0.8,-0.1 1.2,-0.4 0.4,-0.3 0.7,-0.6 0.8,-1 0.1,-0.3 0,-0.6 -0.1,-0.9 -0.1,-0.2 -0.3,-0.3 -0.4,-0.3 -0.2,0 -0.4,0 -0.7,0.1 -0.2,0.1 -0.6,0.2 -1.3,0.5 -0.8,0.3 -1.5,0.5 -2,0.4 -0.7,-0.1 -1.2,-0.4 -1.6,-0.9 -0.2,-0.3 -0.4,-0.7 -0.4,-1.2 0,-0.4 0.1,-0.9 0.3,-1.3 0.2,-0.4 0.6,-0.8 1.1,-1.2 0.8,-0.6 1.6,-0.9 2.3,-0.8 0.7,0.1 1.3,0.4 1.7,1 l -1.3,1 c -0.3,-0.3 -0.6,-0.5 -0.9,-0.5 -0.3,0 -0.6,0.1 -1,0.4 -0.4,0.3 -0.6,0.6 -0.7,0.9 -0.1,0.2 0,0.4 0.1,0.6 0.1,0.2 0.3,0.2 0.5,0.3 0.3,0 0.8,-0.1 1.5,-0.4 0.8,-0.3 1.4,-0.5 1.8,-0.6 0.4,-0.1 0.8,0 1.2,0.1 0.4,0.2 0.7,0.4 1,0.9 0.3,0.4 0.4,0.8 0.4,1.3 0,0.5 -0.1,0.9 -0.4,1.4 -0.3,0.4 -0.7,0.9 -1.3,1.3 -0.8,0.6 -1.6,0.9 -2.3,0.8 -0.6,0.1 -1.3,-0.3 -1.9,-1 z m -7.2,-3.1 -0.2,-1.8 1.5,-0.9 -0.5,2.2 z m 2.5,8.8 -4.1,-7 5.2,-3 0.7,1.2 -3.8,2.2 0.9,1.6 3.5,-2 0.7,1.2 -3.5,2 1.1,1.9 3.9,-2.3 0.7,1.2 z m -8.8,-3.4 2.2,4.9 1.1,-0.5 c 0.4,-0.2 0.7,-0.3 0.9,-0.5 0.2,-0.2 0.4,-0.4 0.5,-0.6 0.1,-0.2 0.1,-0.5 0.1,-0.9 0,-0.4 -0.2,-0.9 -0.5,-1.4 -0.3,-0.6 -0.5,-1 -0.7,-1.3 -0.2,-0.3 -0.5,-0.4 -0.7,-0.5 -0.3,-0.1 -0.5,-0.1 -0.8,0 -0.2,0 -0.6,0.2 -1.3,0.5 z m -2,-0.6 2.7,-1.2 c 0.6,-0.3 1.1,-0.4 1.5,-0.5 0.5,-0.1 1,0 1.4,0.2 0.5,0.2 0.9,0.5 1.3,0.9 0.4,0.4 0.7,0.9 1,1.6 0.3,0.6 0.4,1.2 0.5,1.7 0.1,0.6 0,1.2 -0.2,1.7 -0.1,0.4 -0.4,0.7 -0.8,1.1 -0.3,0.3 -0.7,0.5 -1.3,0.8 l -2.8,1.3 z m -3.8,10.1 -2.6,-7.7 5.7,-1.9 0.4,1.3 -4.1,1.4 0.6,1.7 3.9,-1.3 0.4,1.3 -3.9,1.3 0.7,2.1 4.3,-1.5 0.4,1.3 z m -7.9,2.2 -2.2,-7.8 1.6,-0.4 1,3.5 2.2,-4.4 2.1,-0.6 -2.1,3.9 4.5,3.9 -2,0.6 -3.2,-3.1 -0.9,1.7 0.7,2.4 z m -7.5,1.4 -1.5,-8 5.9,-1.1 0.3,1.4 -4.3,0.8 0.3,1.8 4,-0.7 0.3,1.4 -4,0.7 0.4,2.2 4.5,-0.8 0.3,1.4 z m -6.8,0.6 -0.6,-8.1 1.6,-0.1 0.5,6.7 4.1,-0.3 0.1,1.4 z m -7.7,0.3 v -1.5 l 4.1,-5.4 -3.8,0.1 v -1.4 l 6,-0.2 v 1.3 l -4.3,5.6 4.6,-0.1 v 1.4 z m -3.4,-9.2 0.1,-1.3 1.3,0.1 -0.1,1.3 z m -2.4,-0.1 0.1,-1.3 H 71 l -0.1,1.3 z m -0.7,4.7 c -0.1,0.9 0.1,1.6 0.5,2.1 0.4,0.5 0.9,0.8 1.6,0.8 0.7,0.1 1.2,-0.1 1.7,-0.6 0.5,-0.4 0.7,-1.1 0.8,-2.1 0.1,-0.9 -0.1,-1.6 -0.5,-2.1 -0.4,-0.5 -0.9,-0.8 -1.6,-0.8 -0.7,-0.1 -1.2,0.1 -1.7,0.6 -0.5,0.5 -0.7,1.2 -0.8,2.1 z m -1.7,-0.1 c 0.1,-0.8 0.2,-1.5 0.5,-2.1 0.2,-0.4 0.5,-0.8 0.8,-1.1 0.3,-0.3 0.7,-0.5 1.1,-0.7 0.5,-0.2 1.1,-0.2 1.8,-0.2 1.2,0.1 2.1,0.5 2.8,1.3 0.7,0.8 0.9,1.9 0.8,3.2 -0.1,1.3 -0.5,2.3 -1.3,3 -0.8,0.7 -1.8,1 -2.9,0.9 -1.2,-0.1 -2.1,-0.5 -2.8,-1.3 -0.6,-0.6 -0.9,-1.7 -0.8,-3 z m -8.1,2.8 1.5,-8 1.6,0.3 -0.7,3.5 3.9,-2.9 2.2,0.4 -3.6,2.6 2.3,5.5 -2.1,-0.4 -1.5,-4.2 -1.6,1.1 -0.4,2.4 z m -6.2,-1.4 2.2,-7.8 1.6,0.4 -2.2,7.8 z m -4.7,-6.4 1.2,0.4 c 0.7,0.3 1.2,0.4 1.4,0.4 0.2,0 0.4,-0.1 0.5,-0.2 0.2,-0.1 0.3,-0.3 0.4,-0.5 0.1,-0.3 0.1,-0.5 0,-0.7 -0.1,-0.2 -0.2,-0.4 -0.5,-0.5 -0.1,-0.1 -0.5,-0.2 -1.1,-0.4 L 48.8,156 Z m -3.1,3.9 2.6,-7.7 3.3,1.1 c 0.8,0.3 1.4,0.6 1.7,0.8 0.3,0.3 0.5,0.6 0.6,1 0.1,0.4 0.1,0.9 -0.1,1.3 -0.2,0.6 -0.5,1 -1,1.3 -0.5,0.3 -1.1,0.3 -1.8,0.2 0.3,0.3 0.5,0.6 0.6,0.9 0.1,0.3 0.3,0.8 0.5,1.6 l 0.4,1.8 -1.9,-0.6 -0.5,-2.1 c -0.2,-0.7 -0.3,-1.2 -0.4,-1.4 -0.1,-0.2 -0.2,-0.4 -0.4,-0.5 -0.1,-0.1 -0.4,-0.2 -0.8,-0.4 l -0.3,-0.1 -1.1,3.2 z m -1.5,-10.2 1.4,-1.2 1.6,0.7 -2.1,0.9 z m -0.8,5.9 0.2,-3.2 -2.2,2.3 z m 1.5,4.1 -1.6,-0.7 0.1,-2 -3,-1.3 -1.4,1.4 -1.6,-0.7 6.2,-6.1 1.6,0.7 z m -11.7,-5.4 1.1,-8.6 1.6,0.8 -0.9,6.3 4.5,-4.5 1.6,0.8 -6.3,6 z m -7.1,-7.6 1.4,0.7 c -0.2,0.5 -0.3,0.9 -0.1,1.3 0.1,0.4 0.4,0.7 0.8,1 0.4,0.3 0.8,0.4 1.2,0.4 0.3,0 0.6,-0.2 0.8,-0.4 0.1,-0.2 0.1,-0.3 0.1,-0.5 0,-0.2 -0.1,-0.4 -0.3,-0.6 -0.1,-0.2 -0.4,-0.5 -0.9,-1 -0.6,-0.7 -1,-1.2 -1.1,-1.7 -0.2,-0.6 -0.1,-1.2 0.3,-1.8 0.2,-0.3 0.5,-0.6 0.9,-0.8 0.4,-0.2 0.8,-0.2 1.3,-0.1 0.5,0.1 1,0.3 1.5,0.6 0.9,0.5 1.4,1.2 1.6,1.8 0.2,0.7 0.1,1.3 -0.3,2 l -1.4,-0.8 c 0.2,-0.4 0.2,-0.7 0.1,-1 -0.1,-0.3 -0.3,-0.5 -0.7,-0.8 -0.4,-0.3 -0.8,-0.4 -1.1,-0.4 -0.2,0 -0.4,0.1 -0.5,0.3 -0.1,0.2 -0.1,0.3 -0.1,0.5 0.1,0.3 0.4,0.7 1,1.3 0.6,0.6 1,1.1 1.2,1.4 0.2,0.4 0.3,0.8 0.3,1.2 0,0.4 -0.1,0.8 -0.4,1.3 -0.3,0.4 -0.6,0.7 -1,0.9 -0.4,0.2 -0.9,0.3 -1.4,0.2 -0.5,-0.1 -1.1,-0.3 -1.7,-0.7 -0.9,-0.6 -1.4,-1.2 -1.6,-1.9 -0.4,-0.8 -0.3,-1.5 0.1,-2.4 z m -4.5,-5.3 c -0.6,0.7 -0.8,1.4 -0.8,2.1 0,0.6 0.3,1.2 0.8,1.6 0.5,0.4 1.1,0.5 1.7,0.4 0.6,-0.1 1.2,-0.5 1.8,-1.3 0.6,-0.7 0.8,-1.4 0.8,-2 0,-0.6 -0.3,-1.1 -0.9,-1.5 -0.5,-0.4 -1.1,-0.6 -1.7,-0.5 -0.6,0 -1.2,0.5 -1.7,1.2 z m -1.4,-1 c 0.5,-0.7 1,-1.1 1.6,-1.4 0.4,-0.2 0.8,-0.4 1.3,-0.4 0.5,-0.1 0.9,0 1.3,0.1 0.5,0.1 1.1,0.4 1.6,0.8 0.9,0.7 1.5,1.6 1.6,2.7 0.1,1 -0.2,2.1 -1.1,3.1 -0.8,1 -1.7,1.6 -2.7,1.8 -1,0.2 -2,-0.1 -3,-0.9 -1,-0.7 -1.5,-1.6 -1.6,-2.7 -0.1,-1 0.2,-2.1 1,-3.1 z m -1.9,-5.5 -1.6,1.7 0.6,0.6 c 0.5,0.4 0.8,0.7 1,0.8 0.2,0.1 0.4,0.1 0.6,0.1 0.2,0 0.4,-0.2 0.6,-0.3 0.2,-0.2 0.3,-0.5 0.3,-0.7 0,-0.3 -0.1,-0.5 -0.2,-0.7 -0.1,-0.2 -0.4,-0.4 -0.8,-0.9 z m -5.8,3.7 5.6,-5.9 1.9,1.8 c 0.7,0.7 1.2,1.2 1.3,1.4 0.3,0.4 0.3,0.9 0.3,1.4 -0.1,0.5 -0.3,1 -0.8,1.5 -0.3,0.4 -0.7,0.6 -1.1,0.7 -0.4,0.1 -0.7,0.2 -1.1,0.1 -0.3,-0.1 -0.6,-0.2 -0.9,-0.3 -0.3,-0.2 -0.8,-0.6 -1.3,-1.1 l -0.8,-0.7 -2.1,2.2 z m -0.3,-4.9 1.6,-2.8 -3,1.1 z m -0.5,4.4 -1.2,-1.3 0.9,-1.7 -2.1,-2.5 -1.8,0.7 -1.1,-1.3 8.2,-2.9 1.1,1.3 z m -9.9,-12 6.4,-5.1 1,1.3 -2.8,2.2 4.9,0.3 1.4,1.7 L 7.6,128 5.7,133.6 4.4,131.9 6,128 4.1,127.8 2.2,129.3 Z"
   id="path6"
   style="fill:#6e0a11" /><polygon
   class="st1"
   points="48.9,47.9 58.6,47.9 58.6,69.1 78.1,47.9 90.9,48 73,66.5 91.9,95.6 79.5,95.6 66.3,73.2 58.6,81.2 58.6,95.6 48.9,95.6 "
   id="polygon8"
   style="clip-rule:evenodd;fill:#6e0a11;fill-rule:evenodd" /><polygon
   class="st2"
   points="48.9,47.9 58.6,47.9 58.6,69.1 78.1,47.9 90.9,48 73,66.5 91.9,95.6 79.5,95.6 66.3,73.2 58.6,81.2 58.6,95.6 48.9,95.6 "
   id="polygon10"
   style="fill:none;stroke:#ffffff;stroke-width:0.56690001;stroke-miterlimit:22.92560005" /><polygon
   class="st3"
   points="69.1,81.3 69.3,81.1 66.1,75.5 60,81.8 60,95.7 69.1,95.7 "
   id="polygon12"
   style="clip-rule:evenodd;fill:#6f6f6e;fill-rule:evenodd" /><polygon
   class="st3"
   points="83.5,66.6 101.5,48 92.9,48 74.8,66.7 93.6,95.7 102.5,95.7 "
   id="polygon14"
   style="clip-rule:evenodd;fill:#6f6f6e;fill-rule:evenodd" /><polygon
   class="st3"
   points="69.1,55.6 60,65.5 60,48 69.1,48 "
   id="polygon16"
   style="clip-rule:evenodd;fill:#6f6f6e;fill-rule:evenodd" /><path
   class="st3"
   d="m 108.8,100.8 c -8,9.4 -20.5,15.6 -32,15.6 -16,0 -33.3,-11.8 -38.5,-28.1 H 33.3 28.1 14 8.4 2.4 c 2.3,15 17.9,32.2 30.8,38.9 7.6,3.9 16.1,6.1 25.3,6.1 15.2,0 29,-6.2 39,-16.2 4.7,-4.7 8.5,-10.2 11.3,-16.3"
   id="path20"
   style="clip-rule:evenodd;fill:#6f6f6e;fill-rule:evenodd" /><path
   class="st1"
   d="m 76.9,150.8 c 41.6,0 75.4,-33.8 75.4,-75.4 C 152.3,33.8 118.5,0 76.9,0 40.8,0 10.6,25.4 3.2,59.2 11,36.2 32.8,19.7 58.4,19.7 c 32.2,0 58.3,26.1 58.3,58.3 0,32.2 -26.1,58.3 -58.3,58.3 -19.6,0 -37,-9.7 -47.5,-24.5 12.9,23.3 37.6,39 66,39"
   id="path22"
   style="clip-rule:evenodd;fill:#6e0a11;fill-rule:evenodd" /><path
   d="M 11.1,76.9 C 8.9,77.1 8,77.1 7.3,75.5 L 6.1,67 c 0.8,-2.2 2.1,-2.1 3.7,-2.3 h 21.7 c 2,0.2 4,0.3 3.5,2.8 l -0.8,6.7 c -0.1,1.9 -0.5,3 -2.6,2.8 C 24.9,76.1 18,75.5 11.1,76.9 m 17,11.4 H 14 v 0 c 0.6,-1.1 0.8,-2 0.8,-3.2 H 27 c 0,1.2 0.5,2.3 1.1,3.2 m 10.2,0 h -5 c 0.9,-1 1.2,-2.3 0.9,-3.6 1.1,-0.7 2,-1.6 2.6,-2.8 0.4,-1 0.5,-2.1 0.5,-3.2 0,-1 -0.1,-2.1 -0.1,-3.1 0.7,0.3 1.4,0.4 2.1,0.1 1.1,-0.5 1.5,-1.9 1.6,-2.9 l 1,-4.8 v 0 c 0.1,-1.7 -1.3,-2.8 -2.8,-2.9 0.6,-1.7 0.2,-3.3 -1.2,-4.5 0.2,-0.3 0.4,-0.6 0.5,-0.9 0.3,-0.7 0.5,-1.5 0.5,-2.3 -0.1,-0.9 -0.4,-1.8 -1,-2.5 -0.4,-0.5 -1,-0.9 -1.6,-1.1 -3.8,-2.4 -9.3,-3.2 -13.8,-3.1 -5,0.1 -10.1,1.3 -14.4,3.8 -0.5,0.3 -0.7,0.9 -0.4,1.4 0.3,0.5 0.9,0.7 1.4,0.4 4.1,-2.3 8.8,-3.4 13.5,-3.5 4.1,-0.1 9.2,0.6 12.7,2.8 v 0 h 0.1 c 0.4,0.2 0.7,0.4 1,0.7 0.3,0.3 0.5,0.7 0.5,1.1 0,0.4 -0.1,0.9 -0.3,1.3 -0.1,0.3 -0.3,0.6 -0.5,0.8 -0.6,-0.1 -1.3,-0.3 -1.8,-0.3 -1.3,-0.2 -2.7,-0.4 -4,-0.6 -2,-0.2 -4,-0.5 -5.9,-0.6 -1.7,-0.2 -3.4,-0.3 -5.2,-0.2 -1.4,0.1 -2.7,0.3 -4.1,0.5 -2.2,0.3 -4.3,0.5 -6.5,0.7 v 0 L 7.3,59.1 C 6.2,59.3 5.2,60 4.5,60.9 3.5,62.2 3.1,63.8 3.1,65.4 1.5,65.1 0.6,66 0.1,67.8 L 0,68 0.1,73.1 v 0 c 0.2,2.7 2.3,3.5 4.3,2.7 -0.1,1.2 -0.2,2.4 -0.2,3.6 0,1.1 0,2.3 0.6,3.3 0.6,1 1.5,1.6 2.5,2 -0.2,1.4 0.2,2.5 1.1,3.6 h -6 z"
   style="clip-rule:evenodd;fill:#6e0a11;fill-rule:evenodd;fill-opacity:1"
   id="path24" /><path
   class="st4"
   d="m 26.3,82.6 -10.6,-0.2 -2.8,-4 c 6.2,-1.1 10.6,-0.9 16.2,0.2 z"
   id="path26"
   style="clip-rule:evenodd;fill:#ffffff;fill-rule:evenodd" />
</svg>